<svg width="20" height="21" viewBox="0 0 20 21" fill="none" xmlns="http://www.w3.org/2000/svg">
<path fill-rule="evenodd" clip-rule="evenodd" d="M10 18.6904C14.4183 18.6904 18 15.1087 18 10.6904C18 6.27215 14.4183 2.69043 10 2.69043C5.58172 2.69043 2 6.27215 2 10.6904C2 15.1087 5.58172 18.6904 10 18.6904ZM9.5547 7.85838C9.24784 7.65381 8.8533 7.63474 8.52814 7.80876C8.20298 7.98278 8 8.32164 8 8.69043V12.6904C8 13.0592 8.20298 13.3981 8.52814 13.5721C8.8533 13.7461 9.24784 13.7271 9.5547 13.5225L12.5547 11.5225C12.8329 11.337 13 11.0248 13 10.6904C13 10.3561 12.8329 10.0438 12.5547 9.85838L9.5547 7.85838Z" fill="white"/>
</svg>
